<svg width="32" height="32" viewBox="0 0 32 32" xmlns="http://www.w3.org/2000/svg">
    <path id="Pfad" fill="none" stroke="#4e4e4e" stroke-width="2.060122" d="M 15.9936 30.791597 C 7.879967 30.791597 1.302567 24.214199 1.302567 16.100565 C 1.302567 7.986933 7.879967 1.409533 15.9936 1.409533"/>
    <path id="path1" fill="none" stroke="#4e4e4e" stroke-width="2.060122" d="M 8.424639 25.180439 C 3.418763 20.980011 2.765817 13.516825 6.966248 8.510946 C 11.166677 3.50507 18.629864 2.852125 23.63574 7.052555"/>
    <path id="path2" fill="none" stroke="#4e4e4e" stroke-width="2.060122" d="M 11.763759 24.040543 C 7.381052 21.727173 5.70352 16.298931 8.016891 11.91622 C 10.330259 7.533516 15.758504 5.855988 20.141212 8.169353"/>
    <path id="path3" fill="none" stroke="#4e4e4e" stroke-width="2.060122" d="M 15.9936 22.214912 C 12.616739 22.214912 9.879252 19.477425 9.879252 16.100565 C 9.879252 12.723705 12.616739 9.986217 15.9936 9.986217"/>
    <path id="path4" fill="#231f20" stroke="none" d="M 17.882185 14.390934 C 17.643833 14.139221 17.394056 13.93877 17.133156 13.78982 C 16.871954 13.641176 16.605431 13.56658 16.333044 13.56658 C 15.95856 13.56658 15.623671 13.635254 15.328736 13.772654 C 15.033441 13.910055 14.781063 14.09334 14.571183 14.322203 C 14.36106 14.551365 14.20226 14.814621 14.094539 15.112215 C 13.986515 15.410051 13.932836 15.719189 13.932836 16.039574 C 13.932836 16.360256 13.986515 16.669397 14.094539 16.966991 C 14.20226 17.264767 14.36106 17.528084 14.571183 17.756947 C 14.781063 17.986172 15.033441 18.16909 15.328736 18.306553 C 15.623671 18.443893 15.95856 18.512564 16.333044 18.512564 C 16.650648 18.512564 16.945883 18.446796 17.218269 18.315136 C 17.490656 18.183598 17.723082 17.99173 17.91622 17.739777 L 19.278025 19.216679 C 19.073769 19.422813 18.838135 19.600412 18.571615 19.749119 C 18.304789 19.898067 18.035366 20.01824 17.76298 20.109764 C 17.490656 20.201283 17.229452 20.26693 16.979916 20.30719 C 16.730198 20.347206 16.514456 20.367397 16.333044 20.367397 C 15.720208 20.367397 15.141464 20.264271 14.596693 20.05826 C 14.051982 19.852123 13.580898 19.560154 13.183805 19.182346 C 12.786409 18.804535 12.471468 18.34947 12.239039 17.81703 C 12.00631 17.284592 11.890064 16.692186 11.890064 16.039574 C 11.890064 15.386959 12.00631 14.794493 12.239039 14.262114 C 12.471468 13.729736 12.786409 13.274609 13.183805 12.896801 C 13.580898 12.518991 14.051982 12.22702 14.596693 12.020947 C 15.141464 11.814877 15.720208 11.711807 16.333044 11.711807 C 16.854906 11.711807 17.379971 11.812155 17.907698 12.012363 C 18.435421 12.212812 18.89768 12.530535 19.295073 12.965471 L 17.882185 14.390934 Z"/>
</svg>
