<svg width="16" height="16" viewBox="0 0 16 16" xmlns="http://www.w3.org/2000/svg">
<path fill="currentColor" d="M 13.946267 4.965562 C 13.396449 4.965562 12.879829 5.179893 12.491295 5.569369 C 12.103444 5.958076 11.89031 6.474695 11.891422 7.023401 C 11.891422 8.157091 12.813176 9.079444 13.946267 9.079444 L 14.529027 9.079444 L 14.529027 7.989903 L 13.946267 7.989903 C 13.413561 7.989903 12.980278 7.556364 12.980278 7.023401 C 12.980278 6.490354 13.413561 6.056898 13.946267 6.056898 C 14.188321 6.056898 14.419936 6.147337 14.59876 6.311358 C 14.771252 6.469904 14.906866 6.682096 14.906866 6.916021 L 14.906866 10.853733 L 15.995808 10.853733 L 15.995808 7.023401 C 15.995808 5.88877 15.076364 4.965648 13.946267 4.965648 Z M 9.531722 4.965562 L 9.53138 4.965562 C 8.357476 4.965562 7.402439 5.920599 7.402439 7.094502 C 7.402439 8.268406 8.357476 9.223444 9.53138 9.223444 C 10.705197 9.223444 11.660236 8.268321 11.660236 7.094161 C 11.658267 5.922482 10.703316 4.967615 9.531722 4.965562 Z M 10.531251 7.094502 C 10.531251 7.645947 10.082738 8.094374 9.53138 8.094374 C 8.979936 8.094374 8.531423 7.645947 8.531423 7.094502 C 8.531423 6.543058 8.979936 6.094631 9.53138 6.094631 C 10.082738 6.094631 10.531251 6.543058 10.531251 7.094502 Z M 4.50738 6.898225 C 4.512 6.772534 4.522781 6.650524 4.546652 6.526802 L 4.547166 6.524235 C 4.5769 6.380293 4.622944 6.240209 4.684406 6.106695 C 4.810695 5.838033 4.997219 5.601198 5.224299 5.421005 C 5.447402 5.245205 5.703834 5.116465 5.978096 5.042566 C 6.111684 5.005513 6.248631 4.981868 6.386909 4.971978 C 6.693562 4.949989 6.996706 4.9843 7.285476 5.092363 C 7.392428 5.132321 7.499123 5.183059 7.598887 5.240898 L 7.767872 5.339038 L 7.22584 6.281925 L 7.056684 6.187636 C 6.940645 6.122671 6.812516 6.082193 6.680213 6.068706 C 6.541262 6.056213 6.397861 6.068706 6.263273 6.105497 C 6.134968 6.140095 6.015172 6.200765 5.911358 6.283722 C 5.815584 6.36063 5.738769 6.458523 5.686845 6.569839 C 5.632428 6.687743 5.612064 6.81754 5.612064 6.946482 L 5.612064 9.079529 L 4.50738 9.079529 L 4.50738 6.898311 Z M 4.123037 6.970011 C 4.1109 6.433435 3.888648 5.923059 3.504086 5.548663 C 3.12182 5.173121 2.607401 4.96266 2.071529 4.962566 L 2.054075 4.962566 C 0.929711 4.962566 0.00984 5.874567 8.6e-05 7.003808 C -0.004706 7.553797 0.204235 8.072899 0.588663 8.465454 C 0.973176 8.858353 1.486717 9.077219 2.03662 9.082096 L 2.663273 9.082096 L 2.663273 7.991101 L 2.068364 7.991101 C 1.81197 7.994966 1.564766 7.895701 1.382246 7.715593 C 1.198179 7.536216 1.093494 7.290676 1.091508 7.033669 C 1.08569 6.499508 1.513326 6.059978 2.045177 6.053647 L 2.070845 6.053647 C 2.60184 6.053647 3.036235 6.488299 3.039315 7.021519 L 3.039315 8.926032 C 3.039315 9.453091 2.610224 9.887058 2.082738 9.893904 C 1.831043 9.892412 1.590351 9.790531 1.414075 9.610867 L 1.275722 9.470802 L 1.275123 9.471315 L 0.71846 10.454502 C 1.087741 10.793163 1.569879 10.982211 2.07093 10.984814 L 2.098652 10.984814 C 2.640086 10.977112 3.147979 10.760641 3.528898 10.37476 C 3.909562 9.988962 4.120813 9.47739 4.123722 8.933048 L 4.123722 6.970353 L 4.123123 6.970353 L 4.123123 6.970096 Z"/>
</svg>
