<svg width="16" height="16" viewBox="0 0 16 16" xmlns="http://www.w3.org/2000/svg">
<path fill="currentColor" d="M 0 4 L 0 12 L 8 12 L 16 4 Z M 2.1775 5.5155 L 2.18 5.5155 C 2.7555 5.5155 3.456 5.6775 3.9635 5.9375 L 3.417 6.891 C 2.8595 6.620501 2.581 6.597 2.2635 6.5785 C 1.792 6.5525 1.555 6.722 1.5495 6.903999 C 1.547 7.125999 1.9975 7.326 2.422 7.464001 C 3.0625 7.6675 3.88 7.9405 4.0055 8.73 L 5.18 5.625999 L 6.544 5.625999 L 7.9195 9.342 L 7.914 5.625999 L 9.4945 5.625999 C 11 5.625999 11.708 6.136002 11.708 7.3055 C 11.708 8.355 10.982 8.983 9.75 8.983 L 9.242 8.983 L 9.2345 10.3785 L 6.844 10.376 L 6.6775 9.769499 C 6.43 9.853 6.1515 9.8975 5.857 9.8975 C 5.5525 9.8975 5.2655 9.85 5.0135 9.765001 L 4.776 10.3765 L 3.4425 10.379 L 3.5025 10.0715 C 3.482 10.09 3.463 10.105501 3.4425 10.1215 C 3.0885 10.407499 2.638 10.541 2.086 10.551 L 1.9425 10.551 C 1.341 10.559 0.747 10.403 0.224 10.103 L 0.7105 9.137 C 1.2365 9.4495 1.568 9.517 2.013 9.5095 C 2.2445 9.504 2.411 9.462 2.5205 9.35 C 2.586 9.282499 2.6225 9.1965 2.625 9.1025 C 2.6295 8.8525 2.2705 8.736 1.8355 8.6 C 1.4815 8.4905 1.0775 8.34 0.765 8.108 C 0.393 7.8375 0.213 7.493502 0.2235 7.009501 C 0.226 6.665501 0.3615 6.3375 0.601 6.092999 C 0.9475 5.7335 1.505 5.517001 2.177 5.517001 Z M 9.2395 6.627501 L 9.2395 7.899 L 9.589 7.899 C 10.0495 7.899 10.4195 7.745 10.4195 7.2555 C 10.4195 6.7815 10.0495 6.627501 9.589 6.627501 Z M 5.8485 7.1405 L 5.351 8.713 C 5.499499 8.7705 5.6715 8.8015 5.8535 8.8015 C 6.0335 8.8015 6.203 8.77 6.348 8.718 L 5.8585 7.1375 Z"/>
</svg>
