<svg width="15" height="15" viewBox="0 0 15 15" fill="none" xmlns="http://www.w3.org/2000/svg">
<path fill-rule="evenodd" clip-rule="evenodd" d="M9.62129 1.13607C9.81656 0.940808 10.1331 0.940808 10.3284 1.13607L13.8639 4.67157C14.0592 4.86683 14.0592 5.18342 13.8639 5.37868C13.6687 5.57394 13.3521 5.57394 13.1568 5.37868L12.5106 4.73246L10.0237 7.84908C10.1957 8.46477 10.1657 9.12513 9.91839 9.72969L9.85169 9.89275C9.72135 10.2108 9.52774 10.4982 9.2826 10.7362L8.97487 11.0352C8.77961 11.2246 8.46831 11.2194 8.27913 11.0242L6.08578 8.74975L2.65079 12.1848C2.45553 12.38 2.13894 12.38 1.94368 12.1848C1.74842 11.9895 1.74842 11.6729 1.94368 11.4777L5.37867 8.04268L3.10423 5.84933C2.90896 5.66015 2.90378 5.34884 3.09327 5.15358L3.39228 4.84586C3.63035 4.60072 3.91775 4.40711 4.23571 4.27677L4.39877 4.21007C5.00333 3.96281 5.66369 3.93277 6.27938 4.10477L9.39599 1.61789L8.74979 0.971686C8.55453 0.776424 8.55453 0.459841 8.74979 0.264579C8.94505 0.069317 9.26163 0.069317 9.4569 0.264579L9.62129 1.13607ZM9.4016 3.10369L6.56098 5.37279C6.42775 5.47749 6.2547 5.51359 6.09093 5.47076C5.51967 5.32136 4.9117 5.36254 4.36661 5.58545L4.20355 5.65216L4.15963 5.69499L9.43347 10.8884L9.47739 10.8445L9.54301 10.6811C9.76592 10.1361 9.8071 9.52808 9.6577 8.95683C9.61487 8.79306 9.65097 8.62001 9.75567 8.48679L12.0248 5.64617L9.4016 3.10369Z" fill="black"/>
</svg>
